<svg width="16" height="16" viewBox="0 0 16 16" fill="none" xmlns="http://www.w3.org/2000/svg">
<path d="M3 13.9999C2.86739 13.9999 2.74021 13.9472 2.64645 13.8535C2.55268 13.7597 2.5 13.6325 2.5 13.4999V2.49991C2.49999 2.41302 2.52263 2.32763 2.56568 2.25215C2.60873 2.17668 2.67071 2.11372 2.7455 2.0695C2.82029 2.02527 2.90532 2.00129 2.9922 1.99994C3.07908 1.99858 3.16481 2.01989 3.24095 2.06177L13.2409 7.56177C13.3194 7.60491 13.3848 7.66833 13.4304 7.74539C13.476 7.82246 13.5 7.91036 13.5 7.99989C13.5 8.08943 13.476 8.17732 13.4304 8.25439C13.3848 8.33145 13.3194 8.39487 13.2409 8.43801L3.24095 13.938C3.16713 13.9786 3.08425 13.9999 3 13.9999ZM3.5 3.34536V12.6543L11.9624 7.99992L3.5 3.34536Z" fill="#252525"/>
</svg>
